<svg xmlns="http://www.w3.org/2000/svg" width="865" height="865" viewBox="0 0 865 865" role="img" aria-label="Flaming Bitcoin logo">
  <path d="M 576.503,700.210 C 577.679,700.199 578.854,700.182 580.030,700.159 C 581.206,700.137 582.381,700.108 583.556,700.073 C 584.732,700.039 585.907,699.998 587.082,699.951 C 588.257,699.904 589.432,699.851 590.606,699.792 C 591.781,699.733 592.955,699.668 594.129,699.597 C 595.303,699.526 596.476,699.449 597.649,699.365 C 598.822,699.282 599.994,699.192 601.166,699.097 C 602.338,699.001 603.509,698.899 604.680,698.791 C 605.851,698.683 607.021,698.569 608.190,698.449 C 609.359,698.328 610.528,698.202 611.696,698.069 C 612.864,697.936 614.031,697.797 615.197,697.651 C 616.363,697.506 617.528,697.354 618.692,697.196 C 619.857,697.039 621.020,696.874 622.182,696.704 C 623.344,696.533 624.506,696.357 625.666,696.173 C 626.826,695.990 627.985,695.801 629.142,695.605 C 630.300,695.409 631.457,695.207 632.612,694.998 C 633.767,694.790 634.921,694.575 636.073,694.353 C 637.226,694.132 638.377,693.904 639.527,693.670 C 640.676,693.435 641.825,693.195 642.971,692.947 C 644.118,692.700 645.263,692.447 646.407,692.187 C 647.550,691.926 648.692,691.660 649.832,691.387 C 650.972,691.113 652.111,690.834 653.248,690.548 C 654.384,690.261 655.519,689.969 656.652,689.669 C 657.785,689.370 658.916,689.064 660.045,688.752 C 661.175,688.439 662.302,688.120 663.427,687.794 C 664.552,687.469 665.675,687.136 666.796,686.797 C 667.917,686.458 669.036,686.113 670.153,685.760 C 671.270,685.408 672.384,685.049 673.496,684.683 C 674.609,684.318 675.719,683.945 676.826,683.566 C 677.934,683.187 679.039,682.801 680.142,682.409 C 681.244,682.016 682.345,681.617 683.443,681.211 C 684.540,680.805 685.636,680.392 686.728,679.972 C 687.821,679.552 688.911,679.126 689.998,678.693 C 691.085,678.259 692.170,677.819 693.252,677.372 C 694.334,676.925 695.413,676.471 696.489,676.011 C 697.565,675.550 698.639,675.083 699.709,674.609 C 700.779,674.135 701.847,673.654 702.911,673.166 C 703.976,672.679 705.037,672.185 706.095,671.684 C 707.154,671.183 708.209,670.675 709.261,670.161 C 710.313,669.647 711.362,669.127 712.408,668.599 C 713.453,668.072 714.496,667.538 715.535,666.998 C 716.573,666.458 717.609,665.911 718.641,665.357 C 719.674,664.804 720.703,664.244 721.728,663.678 C 722.753,663.112 723.775,662.539 724.793,661.960 C 725.811,661.381 726.826,660.796 727.837,660.204 C 728.848,659.612 729.855,659.014 730.859,658.410 C 731.863,657.805 732.863,657.195 733.859,656.578 C 734.855,655.961 735.847,655.338 736.835,654.708 C 737.823,654.079 738.808,653.443 739.788,652.802 C 740.769,652.160 741.745,651.512 742.717,650.858 C 743.690,650.204 744.658,649.544 745.622,648.877 C 746.586,648.211 747.546,647.539 748.502,646.861 C 749.458,646.182 750.410,645.498 751.357,644.808 C 752.304,644.117 753.247,643.421 754.186,642.719 C 755.124,642.016 756.058,641.308 756.988,640.594 C 757.918,639.880 758.843,639.160 759.764,638.434 C 760.684,637.708 761.601,636.977 762.512,636.239 C 763.424,635.502 764.331,634.758 765.233,634.009 C 766.135,633.260 767.033,632.505 767.925,631.745 C 768.818,630.984 769.706,630.218 770.589,629.446 C 771.472,628.674 772.350,627.896 773.223,627.113 C 774.097,626.330 774.965,625.541 775.828,624.746 C 776.691,623.952 777.550,623.152 778.403,622.346 C 779.256,621.540 780.104,620.729 780.947,619.913 C 781.790,619.096 782.627,618.274 783.460,617.447 C 784.292,616.619 785.119,615.787 785.941,614.949 C 786.762,614.110 787.579,613.267 788.390,612.419 C 789.201,611.570 790.006,610.716 790.806,609.857 C 791.606,608.998 792.401,608.134 793.190,607.265 C 793.978,606.396 794.762,605.521 795.539,604.642 C 796.317,603.763 797.089,602.878 797.855,601.989 C 798.621,601.100 799.382,600.206 800.136,599.307 C 800.891,598.408 801.639,597.504 802.382,596.595 C 803.125,595.686 803.862,594.773 804.593,593.855 C 805.323,592.936 806.048,592.013 806.767,591.086 C 807.486,590.158 808.198,589.226 808.905,588.289 C 809.611,587.352 810.312,586.411 811.006,585.465 C 811.700,584.519 812.388,583.569 813.069,582.614 C 813.751,581.659 814.426,580.700 815.095,579.737 C 815.763,578.773 816.426,577.805 817.082,576.833 C 817.737,575.861 818.387,574.884 819.030,573.903 C 819.672,572.923 820.309,571.938 820.938,570.949 C 821.568,569.960 822.191,568.966 822.807,567.969 C 823.423,566.972 824.032,565.971 824.635,564.965 C 825.237,563.960 825.833,562.951 826.422,561.938 C 827.011,560.924 827.593,559.907 828.168,558.886 C 828.743,557.865 829.311,556.840 829.872,555.812 C 830.433,554.783 830.987,553.751 831.533,552.715 C 832.080,551.679 832.620,550.639 833.152,549.596 C 833.684,548.552 834.209,547.505 834.727,546.455 C 835.245,545.404 835.755,544.350 836.259,543.292 C 836.762,542.235 837.258,541.174 837.746,540.109 C 838.234,539.045 838.716,537.977 839.189,536.906 C 839.663,535.835 840.130,534.761 840.589,533.683 C 841.048,532.606 841.499,531.525 841.944,530.442 C 842.388,529.358 842.825,528.271 843.255,527.182 C 843.684,526.092 844.107,525.000 844.522,523.904 C 844.936,522.809 845.344,521.710 845.744,520.609 C 846.144,519.508 846.537,518.405 846.922,517.298 C 847.307,516.192 847.685,515.083 848.056,513.971 C 848.426,512.860 848.789,511.746 849.145,510.629 C 849.501,509.512 849.849,508.393 850.190,507.272 C 850.531,506.151 850.864,505.027 851.190,503.901 C 851.516,502.775 851.835,501.647 852.146,500.517 C 852.457,499.387 852.760,498.254 853.057,497.120 C 853.353,495.985 853.642,494.849 853.923,493.711 C 854.204,492.572 854.478,491.432 854.744,490.290 C 855.011,489.148 855.270,488.004 855.521,486.858 C 855.773,485.712 856.017,484.565 856.253,483.416 C 856.490,482.267 856.719,481.116 856.940,479.964 C 857.162,478.812 857.376,477.658 857.582,476.503 C 857.789,475.348 857.988,474.191 858.179,473.034 C 858.371,471.876 858.555,470.717 858.732,469.556 C 858.908,468.396 859.077,467.234 859.239,466.072 C 859.400,464.909 859.554,463.745 859.700,462.580 C 859.847,461.416 859.986,460.250 860.117,459.083 C 860.249,457.916 860.372,456.749 860.489,455.580 C 860.605,454.412 860.714,453.243 860.815,452.073 C 860.916,450.903 861.010,449.732 861.096,448.561 C 861.182,447.390 861.260,446.218 861.331,445.045 C 861.402,443.873 861.465,442.700 861.521,441.527 C 861.577,440.354 861.625,439.180 861.666,438.006 C 861.706,436.832 861.739,435.658 861.765,434.484 C 861.790,433.309 861.808,432.134 861.818,430.960 C 861.828,429.785 861.831,428.610 861.826,427.436 C 861.821,426.261 861.809,425.086 861.789,423.911 C 861.768,422.737 861.741,421.562 861.705,420.388 C 861.670,419.214 861.627,418.040 861.577,416.866 C 861.527,415.692 861.469,414.519 861.403,413.346 C 861.337,412.173 861.264,411.000 861.184,409.829 C 861.103,408.657 861.015,407.485 860.919,406.314 C 860.823,405.144 860.720,403.973 860.609,402.804 C 860.498,401.635 860.379,400.466 860.253,399.298 C 860.127,398.131 859.994,396.964 859.852,395.798 C 859.711,394.632 859.563,393.467 859.406,392.303 C 859.250,391.139 859.086,389.976 858.915,388.814 C 858.744,387.653 858.565,386.492 858.378,385.333 C 858.192,384.174 857.998,383.016 857.797,381.859 C 857.595,380.703 857.386,379.547 857.170,378.394 C 856.953,377.240 856.729,376.088 856.497,374.937 C 856.266,373.786 856.027,372.637 855.780,371.490 C 855.534,370.343 855.279,369.197 855.018,368.053 C 854.756,366.909 854.487,365.767 854.210,364.627 C 853.934,363.487 853.649,362.349 853.358,361.212 C 853.066,360.076 852.767,358.942 852.460,357.810 C 852.153,356.678 851.839,355.548 851.517,354.420 C 851.196,353.292 850.867,352.166 850.530,351.043 C 850.193,349.920 849.849,348.799 849.497,347.681 C 849.146,346.562 848.786,345.446 848.420,344.332 C 848.053,343.219 847.679,342.108 847.297,341.000 C 846.916,339.891 846.527,338.785 846.130,337.682 C 845.733,336.580 845.329,335.479 844.918,334.382 C 844.506,333.284 844.087,332.190 843.661,331.098 C 843.234,330.007 842.800,328.918 842.359,327.833 C 841.917,326.747 841.469,325.664 841.012,324.585 C 840.556,323.506 840.092,322.429 839.621,321.357 C 839.150,320.284 838.671,319.214 838.185,318.148 C 837.699,317.081 837.205,316.018 836.704,314.959 C 836.203,313.900 835.695,312.843 835.179,311.791 C 834.664,310.739 834.141,309.690 833.611,308.644 C 833.081,307.599 832.544,306.557 831.999,305.519 C 831.455,304.482 830.903,303.447 830.345,302.417 C 829.786,301.387 829.220,300.360 828.648,299.337 C 828.075,298.315 827.495,297.296 826.908,296.281 C 826.322,295.267 825.728,294.256 825.127,293.249 C 824.527,292.243 823.919,291.240 823.305,290.242 C 822.691,289.244 822.070,288.250 821.442,287.260 C 820.814,286.270 820.179,285.285 819.538,284.303 C 818.896,283.322 818.248,282.346 817.593,281.373 C 816.939,280.401 816.277,279.433 815.609,278.470 C 814.941,277.507 814.267,276.548 813.586,275.594 C 812.905,274.640 812.217,273.690 811.523,272.746 C 810.829,271.801 810.129,270.861 809.422,269.926 C 808.715,268.991 808.002,268.061 807.282,267.136 C 806.563,266.210 805.837,265.290 805.105,264.375 C 804.373,263.459 803.634,262.549 802.890,261.644 C 802.145,260.739 801.394,259.839 800.638,258.944 C 799.881,258.049 799.118,257.159 798.349,256.275 C 797.580,255.391 796.804,254.511 796.023,253.638 C 795.242,252.764 794.455,251.896 793.662,251.033 C 792.869,250.170 792.070,249.313 791.265,248.461 C 790.460,247.610 789.650,246.764 788.833,245.923 C 788.016,245.083 787.194,244.248 786.366,243.419 C 785.538,242.590 784.704,241.767 783.865,240.949 C 783.025,240.132 782.180,239.320 781.329,238.515 C 780.478,237.709 779.622,236.909 778.760,236.116 C 777.898,235.322 777.031,234.534 776.158,233.752 C 775.285,232.971 774.407,232.195 773.524,231.425 C 772.640,230.655 771.751,229.892 770.857,229.134 C 769.963,228.377 769.064,227.625 768.160,226.880 C 767.256,226.134 766.346,225.395 765.432,224.662 C 764.517,223.929 763.598,223.202 762.673,222.481 C 761.749,221.760 760.820,221.046 759.886,220.337 C 758.952,219.629 758.013,218.927 757.069,218.231 C 756.126,217.535 755.177,216.846 754.225,216.163 C 753.272,215.479 752.314,214.802 751.352,214.132 C 750.390,213.461 749.423,212.797 748.452,212.139 C 747.482,211.481 746.506,210.830 745.526,210.185 C 744.547,209.540 743.563,208.902 742.574,208.269 C 741.586,207.637 740.594,207.012 739.597,206.393 C 738.600,205.774 737.600,205.161 736.595,204.555 C 735.590,203.949 734.581,203.350 733.569,202.757 C 732.556,202.164 731.539,201.577 730.519,200.998 C 729.499,200.418 728.474,199.845 727.446,199.279 C 726.418,198.712 725.387,198.153 724.351,197.600 C 723.316,197.047 722.277,196.500 721.234,195.961 C 720.192,195.421 719.146,194.888 718.096,194.362 C 717.047,193.836 715.994,193.317 714.938,192.805 C 713.881,192.292 712.822,191.787 711.759,191.288 C 710.696,190.789 709.630,190.297 708.561,189.812 C 707.492,189.328 706.419,188.849 705.344,188.378 C 704.268,187.907 703.190,187.443 702.109,186.986 C 701.027,186.529 699.943,186.078 698.856,185.635 C 697.769,185.192 696.679,184.756 695.586,184.327 C 694.493,183.898 693.397,183.475 692.299,183.060 C 691.201,182.645 690.100,182.237 688.997,181.836 C 687.894,181.435 686.788,181.041 685.679,180.654 C 684.571,180.268 683.460,179.888 682.346,179.515 C 681.233,179.142 680.117,178.776 678.999,178.418 C 677.881,178.059 676.761,177.707 675.639,177.363 C 674.516,177.018 673.391,176.681 672.265,176.350 C 671.138,176.020 670.009,175.697 668.878,175.381 C 667.747,175.064 666.614,174.755 665.479,174.453 C 664.344,174.151 663.207,173.856 662.069,173.568 C 660.930,173.280 659.789,173.000 658.647,172.726 C 657.505,172.452 656.361,172.186 655.215,171.927 C 654.070,171.667 652.922,171.415 651.773,171.170 C 650.625,170.925 649.474,170.687 648.322,170.456 C 647.170,170.225 646.017,170.001 644.862,169.784 C 643.707,169.568 642.551,169.358 641.394,169.156 C 640.236,168.954 639.077,168.758 637.918,168.570 C 636.758,168.382 635.596,168.201 634.434,168.028 C 633.272,167.854 632.109,167.687 630.944,167.528 C 629.780,167.369 628.614,167.216 627.448,167.071 C 626.282,166.926 625.115,166.788 623.947,166.658 C 622.778,166.527 621.609,166.403 620.440,166.287 C 619.270,166.171 618.100,166.062 616.929,165.960 C 615.758,165.858 614.586,165.763 613.414,165.676 C 612.241,165.588 611.069,165.508 609.895,165.435 C 608.722,165.362 607.548,165.296 606.374,165.237 C 605.200,165.178 604.025,165.127 602.851,165.083 C 601.676,165.039 600.501,165.002 599.326,164.972 C 598.150,164.942 596.975,164.920 595.799,164.904 C 594.624,164.889 593.448,164.881 592.272,164.880 C 591.097,164.880 589.921,164.886 588.745,164.900 C 587.570,164.913 586.394,164.934 585.219,164.963 C 584.043,164.991 582.868,165.027 581.693,165.069 C 580.518,165.112 579.343,165.162 578.169,165.219 C 576.995,165.277 575.821,165.341 574.647,165.413 C 573.473,165.484 572.300,165.563 571.127,165.649 C 569.955,165.734 568.782,165.827 567.611,165.927 C 566.439,166.027 565.268,166.133 564.097,166.247 C 562.927,166.361 561.757,166.481 560.588,166.609 C 559.418,166.736 558.250,166.871 557.082,167.012 C 555.914,167.153 554.747,167.300 553.581,167.455 C 552.415,167.610 551.250,167.771 550.085,167.939 C 548.921,168.107 547.757,168.281 546.595,168.462 C 545.432,168.643 544.271,168.831 543.110,169.025 C 541.950,169.219 540.791,169.420 539.632,169.627 C 538.474,169.834 537.317,170.048 536.161,170.268 C 535.005,170.488 533.850,170.714 532.697,170.947 C 531.544,171.179 530.391,171.418 529.241,171.663 C 528.090,171.908 526.940,172.160 525.792,172.417 C 524.644,172.675 523.498,172.939 522.353,173.208 C 521.207,173.478 520.064,173.754 518.922,174.036 C 517.780,174.318 516.639,174.606 515.501,174.900 C 514.362,175.193 513.225,175.493 512.089,175.799 C 510.954,176.105 509.820,176.416 508.688,176.734 C 507.556,177.051 506.426,177.374 505.298,177.703 C 504.169,178.032 503.043,178.367 501.918,178.708 C 500.794,179.048 499.671,179.394 498.551,179.746 C 497.430,180.098 496.312,180.455 495.195,180.818 C 494.079,181.181 492.964,181.549 491.852,181.923 C 490.740,182.297 489.630,182.676 488.522,183.061 C 487.414,183.446 486.309,183.836 485.205,184.232 C 484.102,184.627 483.001,185.028 481.902,185.434 C 480.804,185.841 479.707,186.252 478.614,186.669 C 477.520,187.085 476.429,187.507 475.340,187.934 C 474.251,188.361 473.164,188.793 472.081,189.230 C 470.997,189.667 469.916,190.110 468.837,190.557 C 467.759,191.004 466.683,191.456 465.610,191.914 C 464.537,192.371 463.466,192.834 462.398,193.302 C 461.330,193.769 460.264,194.242 459.201,194.720 C 458.138,195.198 457.078,195.682 456.020,196.171 C 454.962,196.659 453.907,197.153 452.854,197.653 C 451.801,198.153 450.750,198.657 449.702,199.168 C 448.654,199.678 447.609,200.194 446.565,200.716 C 445.522,201.237 444.481,201.764 443.443,202.297 C 442.405,202.829 441.369,203.367 440.335,203.911 C 439.301,204.455 438.270,205.005 437.241,205.560 C 436.212,206.116 435.185,206.677 434.161,207.244 C 433.136,207.811 432.114,208.384 431.094,208.963 C 430.074,209.542 429.057,210.126 428.041,210.717 C 427.026,211.308 426.013,211.905 425.002,212.507 C 423.991,213.110 422.981,213.719 421.976,214.334 C 420.970,214.949 419.966,215.569 418.967,216.195 C 417.969,216.821 416.973,217.453 415.985,218.088 C 414.996,218.724 414.012,219.366 413.035,220.011 C 412.059,220.656 411.088,221.306 410.127,221.960 C 409.165,222.613 408.211,223.271 407.267,223.932 C 406.323,224.593 405.388,225.257 404.463,225.925 C 403.539,226.592 402.632,227.259 401.720,227.937 C 400.807,228.614 399.912,229.292 398.989,229.990 C 398.065,230.687 397.144,231.392 396.178,232.123 C 395.213,232.854 394.213,233.608 393.196,234.377 C 392.179,235.146 391.065,235.965 390.077,236.736 C 389.090,237.507 388.066,238.302 387.271,239.004 C 386.477,239.705 385.719,240.405 385.311,240.945 C 384.904,241.485 384.487,242.113 384.827,242.244 C 385.166,242.375 386.308,242.035 387.347,241.730 C 388.386,241.425 389.872,240.814 391.062,240.412 C 392.252,240.010 393.354,239.653 394.489,239.318 C 395.623,238.983 396.735,238.681 397.868,238.401 C 399.001,238.121 400.140,237.868 401.285,237.636 C 402.430,237.404 403.582,237.198 404.738,237.012 C 405.894,236.826 407.056,236.662 408.223,236.518 C 409.389,236.374 410.562,236.248 411.736,236.145 C 412.910,236.043 414.090,235.958 415.268,235.904 C 416.446,235.851 417.628,235.819 418.804,235.823 C 419.981,235.827 421.158,235.857 422.328,235.928 C 423.498,236.000 424.666,236.102 425.824,236.250 C 426.983,236.398 428.136,236.582 429.278,236.815 C 430.419,237.049 431.554,237.323 432.673,237.653 C 433.793,237.982 434.903,238.356 435.995,238.790 C 437.088,239.224 438.173,239.708 439.228,240.256 C 440.283,240.804 441.343,241.407 442.324,242.077 C 443.304,242.748 444.267,243.478 445.111,244.279 C 445.955,245.081 446.747,245.947 447.388,246.886 C 448.028,247.826 448.566,248.851 448.956,249.918 C 449.345,250.986 449.598,252.143 449.726,253.289 C 449.855,254.435 449.850,255.639 449.727,256.796 C 449.605,257.954 449.354,259.134 448.992,260.234 C 448.630,261.335 448.137,262.406 447.555,263.398 C 446.973,264.390 446.264,265.315 445.500,266.186 C 444.737,267.058 443.870,267.866 442.974,268.628 C 442.079,269.391 441.108,270.096 440.128,270.761 C 439.149,271.427 438.130,272.043 437.099,272.623 C 436.068,273.203 435.011,273.738 433.944,274.241 C 432.876,274.744 431.788,275.206 430.694,275.641 C 429.600,276.075 428.492,276.475 427.381,276.848 C 426.270,277.222 425.151,277.566 424.027,277.883 C 422.903,278.201 421.773,278.489 420.639,278.753 C 419.504,279.016 418.364,279.252 417.219,279.463 C 416.075,279.675 414.926,279.860 413.774,280.021 C 412.621,280.182 411.464,280.318 410.305,280.432 C 409.145,280.545 407.982,280.634 406.817,280.702 C 405.652,280.769 404.484,280.814 403.315,280.837 C 402.146,280.861 400.974,280.862 399.802,280.844 C 398.630,280.826 397.456,280.787 396.282,280.729 C 395.108,280.671 393.933,280.593 392.759,280.498 C 391.585,280.402 390.410,280.288 389.237,280.156 C 388.064,280.025 386.891,279.876 385.720,279.711 C 384.549,279.546 383.379,279.364 382.212,279.168 C 381.045,278.971 379.879,278.759 378.717,278.533 C 377.555,278.307 376.395,278.066 375.239,277.812 C 374.084,277.559 372.931,277.291 371.782,277.012 C 370.634,276.734 369.490,276.441 368.350,276.139 C 367.211,275.837 366.076,275.522 364.945,275.199 C 363.814,274.877 362.688,274.543 361.565,274.202 C 360.441,273.862 359.322,273.512 358.205,273.157 C 357.088,272.802 355.974,272.439 354.862,272.073 C 353.750,271.707 352.641,271.335 351.532,270.960 C 350.424,270.586 349.318,270.207 348.212,269.828 C 347.106,269.448 346.002,269.066 344.897,268.685 C 343.793,268.303 342.689,267.921 341.585,267.541 C 340.480,267.161 339.376,266.781 338.270,266.405 C 337.165,266.030 336.058,265.656 334.950,265.288 C 333.842,264.920 332.733,264.555 331.621,264.198 C 330.509,263.841 329.396,263.488 328.279,263.145 C 327.162,262.802 326.043,262.465 324.919,262.138 C 323.796,261.812 322.670,261.493 321.540,261.187 C 320.409,260.881 319.275,260.584 318.136,260.301 C 316.997,260.019 315.853,259.746 314.704,259.490 C 313.556,259.234 312.402,258.990 311.245,258.765 C 310.089,258.539 308.927,258.328 307.764,258.137 C 306.601,257.947 305.434,257.773 304.266,257.621 C 303.098,257.470 301.928,257.337 300.757,257.229 C 299.586,257.120 298.413,257.033 297.242,256.972 C 296.070,256.912 294.897,256.874 293.725,256.866 C 292.554,256.857 291.383,256.873 290.214,256.920 C 289.045,256.968 287.877,257.042 286.712,257.150 C 285.547,257.258 284.384,257.397 283.226,257.566 C 282.067,257.736 280.911,257.939 279.760,258.168 C 278.609,258.397 277.462,258.658 276.321,258.943 C 275.180,259.228 274.044,259.542 272.914,259.878 C 271.785,260.214 270.661,260.577 269.546,260.960 C 268.430,261.343 267.321,261.751 266.221,262.176 C 265.122,262.602 264.029,263.050 262.947,263.514 C 261.864,263.978 260.790,264.462 259.727,264.961 C 258.665,265.459 257.611,265.973 256.569,266.503 C 255.527,267.033 254.495,267.577 253.475,268.139 C 252.454,268.700 251.444,269.277 250.444,269.871 C 249.445,270.465 248.456,271.075 247.479,271.702 C 246.501,272.330 245.534,272.974 244.578,273.637 C 243.623,274.299 242.678,274.978 241.744,275.677 C 240.810,276.375 239.888,277.091 238.976,277.825 C 238.065,278.560 237.165,279.316 236.275,280.086 C 235.386,280.856 234.508,281.647 233.641,282.447 C 232.774,283.247 231.917,284.064 231.071,284.887 C 230.225,285.710 229.408,286.516 228.563,287.385 C 227.718,288.254 226.739,289.214 226.000,290.099 C 225.261,290.985 224.246,292.204 224.130,292.696 C 224.014,293.188 224.573,293.216 225.305,293.051 C 226.038,292.886 227.435,292.143 228.526,291.705 C 229.618,291.267 230.740,290.826 231.855,290.421 C 232.970,290.016 234.091,289.632 235.216,289.272 C 236.342,288.913 237.473,288.576 238.608,288.264 C 239.743,287.952 240.883,287.664 242.028,287.401 C 243.172,287.139 244.321,286.900 245.474,286.689 C 246.627,286.477 247.784,286.291 248.944,286.132 C 250.104,285.974 251.269,285.841 252.436,285.736 C 253.604,285.632 254.775,285.555 255.949,285.506 C 257.122,285.457 258.299,285.437 259.475,285.443 C 260.652,285.449 261.831,285.483 263.008,285.543 C 264.185,285.603 265.363,285.690 266.537,285.802 C 267.711,285.914 268.885,286.053 270.053,286.217 C 271.222,286.380 272.388,286.569 273.548,286.783 C 274.707,286.996 275.864,287.235 277.011,287.497 C 278.159,287.759 279.302,288.045 280.434,288.354 C 281.567,288.663 282.693,288.996 283.808,289.352 C 284.923,289.707 286.029,290.085 287.124,290.485 C 288.220,290.884 289.306,291.306 290.383,291.748 C 291.460,292.190 292.528,292.653 293.587,293.136 C 294.647,293.618 295.697,294.121 296.741,294.642 C 297.784,295.163 298.818,295.703 299.846,296.261 C 300.874,296.818 301.894,297.394 302.908,297.986 C 303.921,298.577 304.928,299.187 305.928,299.811 C 306.929,300.436 307.926,301.074 308.910,301.732 C 309.894,302.389 310.877,303.060 311.833,303.757 C 312.789,304.454 313.735,305.168 314.647,305.913 C 315.558,306.658 316.452,307.425 317.302,308.227 C 318.152,309.030 318.975,309.859 319.747,310.729 C 320.519,311.598 321.255,312.498 321.932,313.444 C 322.608,314.389 323.242,315.371 323.806,316.401 C 324.371,317.431 324.885,318.513 325.319,319.624 C 325.753,320.735 326.128,321.904 326.410,323.068 C 326.691,324.232 326.903,325.434 327.008,326.610 C 327.114,327.786 327.137,328.978 327.043,330.125 C 326.949,331.271 326.749,332.403 326.445,333.488 C 326.140,334.572 325.710,335.616 325.216,336.631 C 324.722,337.645 324.121,338.621 323.479,339.574 C 322.837,340.527 322.111,341.447 321.365,342.348 C 320.618,343.248 319.819,344.124 318.999,344.978 C 318.180,345.832 317.325,346.665 316.446,347.472 C 315.568,348.279 314.658,349.063 313.728,349.821 C 312.797,350.578 311.840,351.312 310.865,352.017 C 309.891,352.722 308.892,353.402 307.881,354.052 C 306.869,354.702 305.837,355.326 304.796,355.918 C 303.755,356.510 302.697,357.075 301.632,357.607 C 300.568,358.139 299.493,358.640 298.411,359.111 C 297.330,359.582 296.240,360.021 295.144,360.431 C 294.048,360.841 292.944,361.221 291.834,361.573 C 290.724,361.926 289.608,362.248 288.486,362.544 C 287.364,362.840 286.236,363.108 285.104,363.350 C 283.971,363.593 282.833,363.807 281.691,363.998 C 280.549,364.189 279.402,364.353 278.252,364.494 C 277.102,364.635 275.948,364.751 274.791,364.844 C 273.634,364.938 272.474,365.007 271.311,365.056 C 270.149,365.104 268.984,365.129 267.817,365.135 C 266.651,365.140 265.482,365.123 264.313,365.088 C 263.144,365.052 261.973,364.996 260.802,364.922 C 259.631,364.847 258.460,364.753 257.289,364.642 C 256.118,364.531 254.947,364.402 253.777,364.256 C 252.608,364.111 251.438,363.948 250.271,363.770 C 249.104,363.593 247.938,363.398 246.775,363.191 C 245.611,362.983 244.450,362.760 243.292,362.524 C 242.133,362.288 240.978,362.038 239.825,361.777 C 238.673,361.517 237.523,361.243 236.375,360.961 C 235.228,360.680 234.083,360.387 232.939,360.089 C 231.796,359.791 230.655,359.483 229.515,359.172 C 228.375,358.862 227.237,358.543 226.099,358.224 C 224.962,357.905 223.826,357.580 222.691,357.257 C 221.555,356.933 220.421,356.607 219.286,356.283 C 218.152,355.959 217.018,355.635 215.884,355.315 C 214.749,354.995 213.615,354.677 212.481,354.365 C 211.346,354.054 210.211,353.746 209.075,353.447 C 207.939,353.148 206.802,352.854 205.664,352.572 C 204.526,352.290 203.387,352.015 202.246,351.753 C 201.104,351.491 199.962,351.239 198.817,351.003 C 197.672,350.766 196.526,350.541 195.376,350.333 C 194.227,350.126 193.075,349.932 191.921,349.757 C 190.766,349.583 189.609,349.425 188.448,349.288 C 187.287,349.151 186.123,349.033 184.956,348.936 C 183.789,348.839 182.619,348.763 181.447,348.707 C 180.275,348.651 179.100,348.616 177.925,348.601 C 176.750,348.586 175.572,348.591 174.395,348.616 C 173.218,348.641 172.039,348.686 170.862,348.751 C 169.684,348.816 168.507,348.901 167.330,349.006 C 166.154,349.111 164.978,349.236 163.805,349.380 C 162.632,349.525 161.460,349.689 160.291,349.872 C 159.122,350.056 157.955,350.259 156.793,350.482 C 155.630,350.704 154.470,350.946 153.315,351.208 C 152.160,351.469 151.009,351.749 149.863,352.049 C 148.717,352.349 147.576,352.667 146.441,353.005 C 145.306,353.343 144.177,353.700 143.054,354.076 C 141.932,354.451 140.815,354.846 139.707,355.259 C 138.599,355.672 137.497,356.104 136.404,356.555 C 135.312,357.005 134.226,357.474 133.151,357.962 C 132.075,358.450 131.008,358.956 129.951,359.480 C 128.895,360.004 127.847,360.547 126.811,361.107 C 125.776,361.667 124.750,362.245 123.738,362.839 C 122.725,363.432 121.724,364.043 120.738,364.668 C 119.752,365.293 118.779,365.935 117.821,366.589 C 116.864,367.244 115.921,367.914 114.995,368.596 C 114.069,369.278 113.158,369.975 112.266,370.682 C 111.375,371.390 110.501,372.109 109.644,372.842 C 108.787,373.575 107.961,374.309 107.125,375.078 C 106.288,375.848 105.474,376.626 104.627,377.459 C 103.780,378.292 102.935,379.150 102.041,380.076 C 101.147,381.002 100.185,382.014 99.264,383.016 C 98.343,384.018 97.313,385.139 96.516,386.086 C 95.718,387.032 94.920,388.005 94.480,388.694 C 94.040,389.382 93.755,389.967 93.875,390.218 C 93.994,390.470 94.541,390.400 95.197,390.203 C 95.854,390.007 96.864,389.518 97.816,389.040 C 98.767,388.562 99.849,387.921 100.907,387.334 C 101.966,386.747 103.076,386.099 104.168,385.519 C 105.260,384.939 106.360,384.381 107.461,383.854 C 108.561,383.327 109.665,382.829 110.771,382.358 C 111.876,381.886 112.985,381.442 114.095,381.025 C 115.205,380.607 116.317,380.216 117.431,379.851 C 118.544,379.486 119.660,379.147 120.778,378.835 C 121.897,378.523 123.017,378.237 124.140,377.978 C 125.264,377.719 126.390,377.486 127.520,377.280 C 128.650,377.075 129.783,376.896 130.920,376.744 C 132.057,376.592 133.197,376.467 134.342,376.369 C 135.487,376.271 136.636,376.200 137.790,376.157 C 138.944,376.113 140.102,376.097 141.266,376.108 C 142.429,376.119 143.599,376.158 144.772,376.224 C 145.946,376.290 147.128,376.384 148.308,376.506 C 149.489,376.629 150.675,376.779 151.856,376.959 C 153.036,377.138 154.219,377.347 155.393,377.586 C 156.567,377.824 157.740,378.092 158.900,378.392 C 160.061,378.691 161.216,379.020 162.356,379.382 C 163.496,379.743 164.627,380.135 165.739,380.560 C 166.851,380.984 167.951,381.440 169.028,381.930 C 170.106,382.420 171.167,382.942 172.203,383.498 C 173.239,384.054 174.255,384.643 175.242,385.267 C 176.229,385.891 177.193,386.549 178.124,387.242 C 179.055,387.936 179.961,388.664 180.829,389.428 C 181.697,390.193 182.536,390.992 183.335,391.829 C 184.134,392.666 184.899,393.539 185.621,394.450 C 186.343,395.361 187.028,396.308 187.667,397.294 C 188.305,398.280 188.904,399.307 189.450,400.367 C 189.997,401.428 190.502,402.535 190.948,403.657 C 191.394,404.780 191.793,405.941 192.125,407.103 C 192.458,408.266 192.737,409.454 192.945,410.633 C 193.152,411.811 193.300,413.003 193.370,414.174 C 193.439,415.344 193.443,416.516 193.363,417.654 C 193.283,418.792 193.131,419.920 192.889,421.002 C 192.646,422.084 192.326,423.144 191.909,424.145 C 191.492,425.147 190.986,426.112 190.387,427.012 C 189.788,427.911 189.085,428.758 188.314,429.544 C 187.542,430.330 186.677,431.059 185.760,431.728 C 184.843,432.397 183.847,433.009 182.813,433.559 C 181.780,434.110 180.682,434.602 179.561,435.032 C 178.440,435.462 177.269,435.832 176.090,436.140 C 174.911,436.448 173.695,436.696 172.486,436.879 C 171.278,437.063 170.048,437.186 168.839,437.244 C 167.630,437.302 166.419,437.293 165.233,437.228 C 164.046,437.163 162.878,437.027 161.720,436.854 C 160.562,436.680 159.421,436.446 158.287,436.188 C 157.152,435.930 156.030,435.623 154.911,435.305 C 153.792,434.986 152.683,434.631 151.573,434.277 C 150.462,433.923 149.358,433.544 148.250,433.179 C 147.141,432.813 146.036,432.435 144.922,432.082 C 143.808,431.730 142.694,431.377 141.568,431.062 C 140.442,430.747 139.310,430.447 138.166,430.191 C 137.022,429.935 135.866,429.712 134.703,429.526 C 133.541,429.340 132.367,429.191 131.191,429.075 C 130.015,428.960 128.831,428.880 127.647,428.834 C 126.463,428.788 125.273,428.777 124.087,428.799 C 122.900,428.822 121.711,428.878 120.528,428.967 C 119.345,429.055 118.162,429.178 116.988,429.332 C 115.813,429.486 114.642,429.673 113.482,429.892 C 112.322,430.110 111.168,430.361 110.028,430.642 C 108.889,430.923 107.759,431.237 106.643,431.579 C 105.528,431.921 104.426,432.295 103.334,432.692 C 102.242,433.088 101.162,433.514 100.091,433.958 C 99.019,434.402 97.959,434.872 96.904,435.356 C 95.850,435.840 94.805,436.345 93.764,436.861 C 92.723,437.377 91.690,437.911 90.660,438.452 C 89.629,438.993 88.605,439.547 87.581,440.105 C 86.557,440.662 85.538,441.230 84.518,441.797 C 83.498,442.363 82.480,442.936 81.460,443.505 C 80.440,444.073 79.420,444.644 78.397,445.206 C 77.373,445.769 76.349,446.330 75.318,446.878 C 74.288,447.427 73.255,447.970 72.214,448.498 C 71.174,449.025 70.129,449.543 69.075,450.042 C 68.020,450.540 66.960,451.026 65.889,451.487 C 64.818,451.949 63.739,452.394 62.647,452.812 C 61.555,453.229 60.452,453.625 59.339,453.992 C 58.225,454.360 57.099,454.702 55.966,455.019 C 54.833,455.336 53.690,455.627 52.541,455.892 C 51.392,456.158 50.235,456.398 49.075,456.612 C 47.914,456.827 46.747,457.016 45.579,457.180 C 44.411,457.344 43.238,457.483 42.067,457.597 C 40.895,457.711 39.721,457.799 38.549,457.863 C 37.378,457.926 36.206,457.965 35.038,457.979 C 33.871,457.992 32.706,457.982 31.546,457.945 C 30.386,457.909 29.234,457.850 28.080,457.760 C 26.926,457.669 25.778,457.554 24.624,457.402 C 23.470,457.250 22.318,457.069 21.157,456.847 C 19.996,456.626 18.832,456.369 17.658,456.071 C 16.484,455.772 15.288,455.417 14.112,455.056 C 12.937,454.695 11.742,454.281 10.604,453.905 C 9.466,453.529 8.334,453.130 7.285,452.800 C 6.235,452.469 5.157,452.110 4.306,451.922 C 3.456,451.734 2.328,451.393 2.180,451.670 C 2.032,451.948 2.767,452.832 3.417,453.586 C 4.068,454.339 5.180,455.350 6.081,456.192 C 6.982,457.033 7.910,457.842 8.824,458.635 C 9.737,459.429 10.649,460.198 11.564,460.950 C 12.479,461.702 13.391,462.433 14.315,463.148 C 15.238,463.863 16.163,464.558 17.102,465.238 C 18.042,465.918 18.991,466.582 19.952,467.229 C 20.914,467.876 21.888,468.507 22.873,469.120 C 23.858,469.733 24.855,470.329 25.862,470.906 C 26.870,471.483 27.890,472.043 28.920,472.583 C 29.951,473.122 30.993,473.643 32.045,474.143 C 33.098,474.643 34.162,475.124 35.236,475.583 C 36.310,476.042 37.396,476.481 38.491,476.897 C 39.587,477.313 40.694,477.708 41.810,478.079 C 42.926,478.450 44.054,478.800 45.188,479.125 C 46.322,479.450 47.465,479.753 48.614,480.030 C 49.762,480.308 50.919,480.562 52.079,480.790 C 53.239,481.019 54.405,481.223 55.573,481.401 C 56.740,481.579 57.913,481.733 59.085,481.859 C 60.258,481.985 61.433,482.086 62.607,482.158 C 63.781,482.231 64.956,482.278 66.128,482.296 C 67.299,482.314 68.471,482.305 69.637,482.267 C 70.804,482.229 71.967,482.161 73.127,482.069 C 74.287,481.977 75.443,481.856 76.597,481.714 C 77.751,481.573 78.901,481.405 80.050,481.219 C 81.199,481.033 82.344,480.824 83.489,480.599 C 84.633,480.375 85.775,480.130 86.916,479.872 C 88.057,479.615 89.197,479.339 90.336,479.054 C 91.475,478.770 92.612,478.470 93.750,478.163 C 94.887,477.856 96.024,477.537 97.162,477.214 C 98.299,476.890 99.436,476.557 100.574,476.224 C 101.712,475.891 102.850,475.550 103.989,475.216 C 105.129,474.882 106.268,474.544 107.409,474.218 C 108.550,473.892 109.691,473.567 110.834,473.258 C 111.977,472.949 113.121,472.646 114.267,472.364 C 115.413,472.081 116.559,471.810 117.708,471.564 C 118.857,471.318 120.007,471.087 121.160,470.886 C 122.312,470.685 123.466,470.505 124.623,470.359 C 125.779,470.213 126.938,470.095 128.099,470.010 C 129.259,469.924 130.423,469.875 131.588,469.847 C 132.753,469.820 133.921,469.824 135.090,469.844 C 136.259,469.865 137.430,469.912 138.602,469.970 C 139.774,470.029 140.948,470.109 142.124,470.195 C 143.299,470.281 144.475,470.383 145.653,470.487 C 146.830,470.590 148.009,470.705 149.188,470.816 C 150.368,470.927 151.548,471.044 152.729,471.152 C 153.909,471.260 155.091,471.369 156.272,471.463 C 157.454,471.558 158.636,471.648 159.817,471.720 C 160.999,471.793 162.181,471.853 163.363,471.897 C 164.545,471.942 165.726,471.973 166.907,471.989 C 168.087,472.005 169.267,472.007 170.446,471.995 C 171.625,471.982 172.803,471.956 173.980,471.914 C 175.156,471.873 176.332,471.817 177.505,471.747 C 178.678,471.677 179.850,471.592 181.019,471.492 C 182.189,471.393 183.356,471.279 184.521,471.150 C 185.686,471.021 186.849,470.877 188.008,470.719 C 189.168,470.560 190.325,470.387 191.478,470.199 C 192.632,470.010 193.782,469.807 194.929,469.589 C 196.076,469.371 197.219,469.138 198.358,468.890 C 199.497,468.641 200.633,468.378 201.764,468.100 C 202.895,467.821 204.022,467.528 205.144,467.219 C 206.266,466.910 207.384,466.586 208.497,466.246 C 209.609,465.907 210.717,465.552 211.819,465.182 C 212.921,464.811 214.018,464.426 215.109,464.024 C 216.200,463.623 217.285,463.206 218.364,462.774 C 219.444,462.342 220.517,461.893 221.584,461.431 C 222.652,460.969 223.713,460.491 224.770,460.001 C 225.826,459.512 226.877,459.007 227.923,458.492 C 228.970,457.977 230.010,457.448 231.047,456.910 C 232.084,456.372 233.116,455.822 234.144,455.263 C 235.173,454.704 236.197,454.135 237.217,453.558 C 238.238,452.981 239.254,452.395 240.267,451.802 C 241.281,451.210 242.291,450.609 243.298,450.003 C 244.306,449.397 245.310,448.784 246.312,448.168 C 247.314,447.551 248.313,446.928 249.311,446.303 C 250.309,445.678 251.304,445.048 252.298,444.417 C 253.291,443.786 254.283,443.151 255.274,442.516 C 256.265,441.881 257.255,441.244 258.244,440.608 C 259.233,439.972 260.221,439.334 261.208,438.699 C 262.196,438.065 263.183,437.430 264.170,436.798 C 265.158,436.166 266.145,435.536 267.133,434.909 C 268.121,434.282 269.109,433.657 270.098,433.036 C 271.087,432.414 272.077,431.796 273.069,431.181 C 274.060,430.567 275.053,429.955 276.048,429.349 C 277.043,428.742 278.039,428.140 279.039,427.542 C 280.038,426.945 281.039,426.352 282.043,425.765 C 283.048,425.178 284.054,424.595 285.065,424.019 C 286.075,423.443 287.088,422.873 288.106,422.310 C 289.123,421.746 290.144,421.189 291.169,420.639 C 292.194,420.089 293.223,419.545 294.257,419.010 C 295.292,418.475 296.330,417.946 297.374,417.427 C 298.418,416.907 299.466,416.395 300.521,415.893 C 301.575,415.390 302.635,414.895 303.701,414.411 C 304.768,413.926 305.840,413.450 306.918,412.984 C 307.997,412.519 309.082,412.062 310.172,411.618 C 311.263,411.173 312.360,410.739 313.462,410.319 C 314.564,409.898 315.672,409.489 316.785,409.095 C 317.897,408.701 319.015,408.320 320.137,407.956 C 321.259,407.591 322.385,407.241 323.516,406.908 C 324.646,406.576 325.781,406.259 326.918,405.961 C 328.056,405.663 329.198,405.382 330.342,405.122 C 331.487,404.862 332.634,404.620 333.784,404.399 C 334.934,404.179 336.087,403.979 337.241,403.802 C 338.396,403.624 339.553,403.468 340.711,403.336 C 341.869,403.205 343.029,403.095 344.190,403.012 C 345.351,402.929 346.513,402.869 347.676,402.837 C 348.838,402.804 350.002,402.797 351.165,402.818 C 352.329,402.840 353.493,402.888 354.656,402.966 C 355.819,403.044 356.982,403.149 358.144,403.286 C 359.306,403.423 360.468,403.590 361.627,403.789 C 362.787,403.988 363.948,404.217 365.103,404.481 C 366.257,404.744 367.413,405.039 368.555,405.370 C 369.697,405.701 370.836,406.064 371.956,406.464 C 373.077,406.864 374.189,407.298 375.277,407.770 C 376.366,408.241 377.441,408.748 378.489,409.294 C 379.536,409.840 380.565,410.422 381.561,411.044 C 382.557,411.667 383.530,412.327 384.465,413.028 C 385.401,413.729 386.308,414.470 387.173,415.251 C 388.037,416.032 388.869,416.857 389.654,417.716 C 390.440,418.575 391.187,419.474 391.885,420.403 C 392.583,421.332 393.239,422.298 393.842,423.288 C 394.444,424.279 395.001,425.303 395.500,426.347 C 395.999,427.392 396.448,428.465 396.835,429.555 C 397.222,430.645 397.556,431.760 397.824,432.887 C 398.091,434.015 398.301,435.163 398.441,436.320 C 398.582,437.477 398.657,438.652 398.665,439.828 C 398.674,441.003 398.614,442.192 398.492,443.371 C 398.371,444.549 398.183,445.733 397.936,446.897 C 397.689,448.061 397.379,449.223 397.011,450.355 C 396.644,451.487 396.215,452.608 395.733,453.691 C 395.250,454.775 394.708,455.838 394.115,456.854 C 393.522,457.870 392.872,458.858 392.173,459.790 C 391.474,460.723 390.720,461.616 389.921,462.448 C 389.121,463.279 388.267,464.057 387.375,464.779 C 386.483,465.500 385.541,466.164 384.568,466.776 C 383.596,467.389 382.580,467.947 381.540,468.456 C 380.500,468.965 379.424,469.421 378.331,469.831 C 377.237,470.241 376.114,470.601 374.980,470.918 C 373.847,471.234 372.690,471.502 371.529,471.730 C 370.369,471.957 369.191,472.139 368.017,472.283 C 366.843,472.426 365.660,472.526 364.485,472.591 C 363.309,472.656 362.135,472.679 360.965,472.671 C 359.794,472.664 358.626,472.618 357.461,472.546 C 356.295,472.474 355.132,472.368 353.971,472.239 C 352.810,472.110 351.652,471.951 350.495,471.774 C 349.338,471.597 348.183,471.393 347.029,471.175 C 345.875,470.956 344.723,470.716 343.573,470.465 C 342.422,470.214 341.272,469.944 340.123,469.668 C 338.975,469.392 337.827,469.102 336.680,468.809 C 335.533,468.516 334.387,468.212 333.240,467.910 C 332.094,467.608 330.948,467.299 329.802,466.996 C 328.657,466.693 327.511,466.387 326.365,466.091 C 325.219,465.795 324.073,465.499 322.926,465.218 C 321.779,464.936 320.631,464.660 319.483,464.401 C 318.334,464.142 317.185,463.892 316.035,463.664 C 314.884,463.435 313.733,463.220 312.580,463.030 C 311.427,462.840 310.272,462.667 309.116,462.524 C 307.959,462.380 306.801,462.259 305.641,462.169 C 304.481,462.078 303.318,462.016 302.156,461.982 C 300.993,461.948 299.828,461.942 298.664,461.962 C 297.500,461.983 296.336,462.031 295.173,462.105 C 294.009,462.179 292.846,462.280 291.686,462.406 C 290.526,462.532 289.366,462.685 288.210,462.861 C 287.055,463.038 285.901,463.240 284.751,463.466 C 283.602,463.691 282.455,463.942 281.314,464.215 C 280.173,464.488 279.036,464.786 277.905,465.105 C 276.774,465.425 275.648,465.768 274.529,466.132 C 273.410,466.496 272.297,466.883 271.192,467.290 C 270.087,467.698 268.988,468.127 267.899,468.576 C 266.810,469.025 265.728,469.496 264.656,469.985 C 263.585,470.475 262.522,470.985 261.470,471.513 C 260.417,472.042 259.375,472.590 258.344,473.156 C 257.313,473.721 256.293,474.306 255.285,474.908 C 254.278,475.510 253.282,476.130 252.299,476.766 C 251.316,477.402 250.347,478.056 249.388,478.723 C 248.429,479.390 247.482,480.074 246.543,480.768 C 245.605,481.462 244.677,482.171 243.755,482.887 C 242.833,483.603 241.920,484.332 241.012,485.066 C 240.103,485.800 239.202,486.544 238.303,487.292 C 237.404,488.039 236.511,488.794 235.618,489.551 C 234.725,490.307 233.837,491.069 232.947,491.830 C 232.057,492.590 231.169,493.355 230.278,494.115 C 229.387,494.876 228.496,495.637 227.601,496.393 C 226.705,497.149 225.808,497.904 224.905,498.651 C 224.001,499.398 223.094,500.141 222.179,500.875 C 221.264,501.608 220.344,502.335 219.414,503.051 C 218.483,503.766 217.546,504.473 216.597,505.166 C 215.648,505.858 214.690,506.540 213.719,507.206 C 212.748,507.871 211.766,508.524 210.772,509.159 C 209.779,509.793 208.773,510.413 207.758,511.012 C 206.743,511.612 205.716,512.195 204.681,512.755 C 203.645,513.316 202.599,513.858 201.544,514.377 C 200.489,514.895 199.424,515.393 198.351,515.865 C 197.279,516.337 196.197,516.787 195.107,517.209 C 194.018,517.631 192.920,518.029 191.815,518.398 C 190.711,518.766 189.598,519.108 188.479,519.419 C 187.360,519.730 186.234,520.013 185.103,520.263 C 183.971,520.512 182.833,520.732 181.690,520.916 C 180.547,521.101 179.398,521.254 178.244,521.369 C 177.091,521.485 175.932,521.567 174.770,521.610 C 173.608,521.653 172.440,521.661 171.270,521.628 C 170.100,521.595 168.926,521.524 167.750,521.411 C 166.573,521.297 165.393,521.145 164.212,520.948 C 163.030,520.750 161.843,520.508 160.660,520.227 C 159.477,519.947 158.284,519.610 157.114,519.264 C 155.944,518.918 154.773,518.529 153.639,518.152 C 152.506,517.775 151.384,517.374 150.312,517.002 C 149.240,516.631 148.264,516.320 147.206,515.923 C 146.148,515.525 145.124,515.134 143.966,514.618 C 142.809,514.101 141.168,513.138 140.262,512.825 C 139.356,512.512 138.644,512.400 138.531,512.739 C 138.418,513.078 139.087,514.085 139.583,514.857 C 140.079,515.630 140.783,516.509 141.506,517.373 C 142.230,518.236 143.082,519.149 143.924,520.039 C 144.767,520.929 145.683,521.839 146.560,522.710 C 147.436,523.581 148.313,524.435 149.185,525.264 C 150.056,526.093 150.916,526.897 151.789,527.684 C 152.661,528.470 153.530,529.234 154.420,529.983 C 155.310,530.731 156.208,531.460 157.126,532.173 C 158.044,532.885 158.978,533.581 159.927,534.258 C 160.875,534.936 161.839,535.596 162.817,536.236 C 163.794,536.877 164.786,537.500 165.791,538.103 C 166.795,538.705 167.813,539.290 168.842,539.854 C 169.872,540.417 170.914,540.962 171.966,541.486 C 173.018,542.010 174.082,542.513 175.155,542.996 C 176.228,543.478 177.313,543.940 178.405,544.379 C 179.497,544.819 180.599,545.237 181.708,545.633 C 182.818,546.029 183.936,546.403 185.060,546.753 C 186.185,547.104 187.317,547.432 188.454,547.737 C 189.592,548.041 190.736,548.323 191.885,548.579 C 193.034,548.836 194.188,549.069 195.346,549.277 C 196.504,549.485 197.667,549.669 198.832,549.828 C 199.997,549.986 201.166,550.119 202.336,550.226 C 203.507,550.333 204.680,550.414 205.854,550.469 C 207.027,550.524 208.203,550.552 209.378,550.557 C 210.553,550.561 211.730,550.539 212.905,550.494 C 214.080,550.450 215.255,550.380 216.429,550.289 C 217.602,550.198 218.775,550.082 219.945,549.947 C 221.115,549.811 222.284,549.652 223.449,549.474 C 224.614,549.296 225.777,549.096 226.935,548.877 C 228.094,548.659 229.249,548.420 230.399,548.164 C 231.549,547.907 232.695,547.631 233.836,547.339 C 234.976,547.046 236.110,546.734 237.240,546.410 C 238.370,546.086 239.493,545.742 240.615,545.393 C 241.736,545.043 242.852,544.679 243.967,544.312 C 245.083,543.945 246.195,543.568 247.307,543.192 C 248.419,542.817 249.529,542.435 250.642,542.059 C 251.754,541.683 252.866,541.304 253.981,540.936 C 255.096,540.568 256.211,540.201 257.332,539.849 C 258.452,539.497 259.575,539.151 260.704,538.823 C 261.833,538.495 262.967,538.179 264.105,537.882 C 265.244,537.584 266.388,537.301 267.535,537.038 C 268.682,536.774 269.835,536.527 270.990,536.300 C 272.145,536.073 273.304,535.864 274.465,535.677 C 275.626,535.490 276.791,535.321 277.958,535.176 C 279.124,535.031 280.293,534.907 281.463,534.806 C 282.633,534.706 283.806,534.628 284.978,534.576 C 286.151,534.523 287.325,534.494 288.499,534.493 C 289.672,534.491 290.847,534.514 292.020,534.565 C 293.194,534.616 294.368,534.694 295.539,534.798 C 296.710,534.902 297.881,535.033 299.048,535.189 C 300.215,535.344 301.380,535.526 302.541,535.732 C 303.701,535.937 304.859,536.168 306.010,536.422 C 307.161,536.675 308.309,536.954 309.449,537.254 C 310.589,537.555 311.724,537.879 312.851,538.224 C 313.978,538.569 315.098,538.937 316.209,539.326 C 317.320,539.714 318.424,540.125 319.516,540.555 C 320.609,540.986 321.694,541.435 322.766,541.909 C 323.838,542.383 324.900,542.877 325.948,543.399 C 326.996,543.922 328.033,544.467 329.053,545.043 C 330.074,545.619 331.084,546.220 332.072,546.856 C 333.059,547.492 334.037,548.155 334.981,548.858 C 335.924,549.560 336.850,550.294 337.732,551.072 C 338.614,551.849 339.470,552.662 340.274,553.522 C 341.077,554.381 341.850,555.285 342.552,556.228 C 343.255,557.172 343.916,558.160 344.491,559.180 C 345.065,560.200 345.583,561.261 346.000,562.348 C 346.417,563.435 346.758,564.562 346.991,565.704 C 347.224,566.846 347.359,568.029 347.398,569.201 C 347.436,570.373 347.374,571.570 347.219,572.735 C 347.064,573.900 346.812,575.072 346.468,576.193 C 346.123,577.314 345.682,578.420 345.155,579.461 C 344.628,580.503 343.997,581.501 343.305,582.442 C 342.614,583.383 341.830,584.272 341.006,585.107 C 340.182,585.942 339.283,586.724 338.362,587.450 C 337.440,588.177 336.467,588.849 335.476,589.466 C 334.485,590.082 333.461,590.644 332.414,591.150 C 331.366,591.657 330.290,592.108 329.194,592.505 C 328.097,592.901 326.974,593.243 325.834,593.530 C 324.694,593.818 323.528,594.046 322.355,594.232 C 321.182,594.417 319.987,594.546 318.797,594.644 C 317.607,594.742 316.404,594.792 315.216,594.821 C 314.027,594.851 312.835,594.841 311.666,594.819 C 310.498,594.797 309.342,594.751 308.204,594.690 C 307.066,594.630 305.960,594.562 304.838,594.454 C 303.715,594.345 302.611,594.221 301.469,594.039 C 300.327,593.857 299.184,593.646 297.984,593.363 C 296.784,593.080 295.528,592.727 294.268,592.343 C 293.008,591.958 291.535,591.386 290.424,591.057 C 289.314,590.729 288.183,590.365 287.605,590.372 C 287.027,590.379 286.827,590.669 286.954,591.102 C 287.081,591.535 287.659,592.249 288.367,592.970 C 289.075,593.692 290.221,594.607 291.203,595.432 C 292.185,596.258 293.298,597.129 294.258,597.923 C 295.219,598.717 296.073,599.452 296.966,600.196 C 297.859,600.939 298.722,601.659 299.614,602.384 C 300.506,603.109 301.409,603.828 302.319,604.544 C 303.229,605.259 304.149,605.970 305.074,606.677 C 306.000,607.384 306.934,608.086 307.873,608.784 C 308.812,609.483 309.758,610.176 310.707,610.866 C 311.657,611.556 312.613,612.242 313.571,612.924 C 314.529,613.606 315.492,614.284 316.456,614.959 C 317.420,615.633 318.387,616.304 319.356,616.970 C 320.324,617.637 321.295,618.300 322.268,618.960 C 323.241,619.619 324.216,620.275 325.193,620.927 C 326.170,621.579 327.149,622.227 328.130,622.871 C 329.111,623.516 330.095,624.156 331.080,624.793 C 332.065,625.430 333.052,626.063 334.042,626.693 C 335.031,627.322 336.022,627.948 337.016,628.569 C 338.009,629.191 339.005,629.809 340.002,630.424 C 340.999,631.038 341.999,631.649 343.000,632.256 C 344.002,632.862 345.005,633.465 346.010,634.065 C 347.016,634.664 348.023,635.259 349.033,635.851 C 350.042,636.443 351.053,637.031 352.067,637.615 C 353.080,638.199 354.095,638.779 355.113,639.356 C 356.130,639.932 357.149,640.505 358.170,641.074 C 359.192,641.643 360.215,642.208 361.240,642.769 C 362.265,643.331 363.292,643.888 364.321,644.442 C 365.350,644.996 366.381,645.545 367.414,646.091 C 368.446,646.638 369.481,647.180 370.518,647.718 C 371.554,648.257 372.593,648.791 373.633,649.322 C 374.673,649.853 375.715,650.380 376.760,650.903 C 377.804,651.426 378.850,651.945 379.897,652.461 C 380.945,652.976 381.995,653.488 383.046,653.996 C 384.098,654.504 385.151,655.008 386.206,655.508 C 387.261,656.008 388.318,656.504 389.376,656.996 C 390.435,657.489 391.495,657.977 392.558,658.462 C 393.620,658.947 394.684,659.427 395.750,659.904 C 396.815,660.381 397.883,660.854 398.952,661.324 C 400.021,661.793 401.092,662.258 402.165,662.720 C 403.238,663.181 404.312,663.639 405.388,664.093 C 406.464,664.546 407.542,664.996 408.622,665.442 C 409.701,665.888 410.782,666.330 411.865,666.768 C 412.948,667.206 414.033,667.641 415.119,668.071 C 416.205,668.502 417.293,668.928 418.382,669.351 C 419.472,669.773 420.563,670.192 421.656,670.607 C 422.749,671.022 423.843,671.432 424.939,671.839 C 426.035,672.246 427.133,672.649 428.232,673.049 C 429.331,673.448 430.432,673.843 431.534,674.234 C 432.636,674.626 433.740,675.013 434.846,675.396 C 435.951,675.780 437.058,676.159 438.167,676.535 C 439.276,676.911 440.386,677.282 441.497,677.650 C 442.609,678.018 443.722,678.382 444.837,678.741 C 445.951,679.101 447.068,679.457 448.185,679.809 C 449.303,680.161 450.422,680.509 451.543,680.853 C 452.663,681.197 453.785,681.537 454.909,681.873 C 456.032,682.210 457.157,682.542 458.284,682.870 C 459.410,683.198 460.538,683.522 461.667,683.843 C 462.797,684.163 463.927,684.479 465.059,684.791 C 466.191,685.103 467.325,685.411 468.459,685.715 C 469.594,686.018 470.730,686.318 471.867,686.613 C 473.004,686.908 474.143,687.200 475.282,687.486 C 476.422,687.773 477.563,688.056 478.705,688.334 C 479.847,688.612 480.990,688.886 482.135,689.156 C 483.279,689.425 484.425,689.690 485.571,689.951 C 486.718,690.211 487.866,690.468 489.014,690.719 C 490.163,690.971 491.313,691.218 492.464,691.460 C 493.615,691.703 494.767,691.941 495.919,692.174 C 497.072,692.408 498.226,692.636 499.381,692.860 C 500.535,693.084 501.691,693.304 502.848,693.518 C 504.004,693.733 505.162,693.943 506.320,694.148 C 507.478,694.353 508.637,694.553 509.797,694.748 C 510.957,694.943 512.118,695.134 513.279,695.319 C 514.441,695.505 515.603,695.686 516.766,695.861 C 517.929,696.037 519.093,696.208 520.257,696.373 C 521.422,696.539 522.587,696.699 523.753,696.855 C 524.918,697.010 526.085,697.161 527.252,697.306 C 528.419,697.451 529.586,697.591 530.754,697.726 C 531.922,697.861 533.091,697.990 534.260,698.114 C 535.429,698.239 536.599,698.358 537.769,698.472 C 538.940,698.585 540.110,698.694 541.281,698.797 C 542.452,698.900 543.624,698.997 544.796,699.089 C 545.968,699.181 547.140,699.268 548.313,699.349 C 549.485,699.430 550.659,699.506 551.832,699.576 C 553.005,699.646 554.179,699.711 555.353,699.770 C 556.527,699.829 557.701,699.882 558.875,699.930 C 560.050,699.977 561.224,700.019 562.399,700.055 C 563.574,700.091 564.749,700.122 565.924,700.146 C 567.099,700.171 568.274,700.190 569.450,700.203 C 570.625,700.216 571.801,700.223 572.976,700.224 C 574.152,700.225 575.327,700.220 576.503,700.210 Z M 604.250,592.623 L 596.375,591.210 L 580.099,588.625 L 576.933,588.000 L 576.246,587.500 L 576.207,586.875 L 576.635,585.125 L 582.202,550.625 L 582.674,548.375 L 583.150,544.750 L 583.467,543.625 L 583.375,542.908 L 582.875,542.391 L 561.750,538.643 L 561.250,538.685 L 560.849,539.000 L 560.572,539.625 L 553.532,582.750 L 553.370,583.375 L 553.000,583.833 L 552.500,584.022 L 529.250,580.175 L 525.625,579.702 L 524.899,579.250 L 524.716,578.250 L 531.913,534.625 L 531.948,533.875 L 531.750,533.346 L 531.125,533.035 L 514.875,530.205 L 480.250,524.626 L 478.125,524.134 L 477.634,523.750 L 477.517,523.375 L 484.662,494.125 L 485.185,491.500 L 485.750,490.437 L 486.625,490.170 L 488.000,490.592 L 505.625,493.523 L 508.500,493.782 L 510.375,493.691 L 513.375,492.788 L 515.125,491.625 L 516.792,489.875 L 517.750,488.431 L 518.670,486.375 L 539.727,358.750 L 540.017,356.375 L 539.894,354.250 L 539.625,352.607 L 538.765,350.000 L 537.750,348.125 L 536.703,346.750 L 535.214,345.250 L 533.750,344.115 L 532.055,343.125 L 529.875,342.206 L 526.000,341.190 L 520.875,340.178 L 505.750,337.937 L 505.250,337.772 L 504.988,337.500 L 504.895,336.750 L 509.198,310.375 L 509.796,307.625 L 510.250,307.140 L 510.875,307.087 L 513.625,307.687 L 548.000,313.259 L 550.375,313.878 L 562.250,315.706 L 566.750,316.292 L 567.375,316.211 L 567.730,315.875 L 567.912,315.375 L 574.798,273.375 L 575.122,272.500 L 575.625,272.245 L 583.500,273.675 L 599.727,276.250 L 602.875,276.870 L 603.375,277.099 L 603.593,277.375 L 603.629,278.000 L 603.233,279.625 L 596.766,319.125 L 596.786,319.625 L 597.000,320.040 L 597.875,320.464 L 617.000,323.242 L 618.375,323.618 L 619.000,323.568 L 619.500,323.228 L 619.773,322.500 L 626.330,282.000 L 626.533,281.375 L 626.875,281.035 L 627.875,280.897 L 650.750,284.743 L 654.125,285.177 L 654.750,285.421 L 655.118,286.000 L 655.144,286.750 L 648.625,326.617 L 648.186,328.500 L 648.289,329.500 L 648.875,329.887 L 657.125,332.169 L 663.250,334.157 L 671.125,337.136 L 675.750,339.174 L 679.875,341.224 L 685.000,344.132 L 689.625,347.239 L 693.435,350.250 L 696.680,353.250 L 699.642,356.500 L 702.640,360.500 L 704.746,364.000 L 706.676,368.125 L 707.750,371.125 L 708.750,374.821 L 709.726,381.000 L 709.886,384.625 L 709.779,390.250 L 708.654,398.875 L 707.697,403.000 L 706.664,406.375 L 704.750,411.129 L 702.750,414.908 L 700.750,417.934 L 698.649,420.625 L 695.750,423.666 L 693.500,425.656 L 690.750,427.734 L 687.625,429.717 L 683.750,431.727 L 678.625,433.754 L 678.265,434.000 L 678.108,434.375 L 678.500,434.831 L 679.750,435.251 L 683.750,437.188 L 689.000,440.177 L 694.625,444.175 L 698.874,448.000 L 702.643,452.250 L 705.682,456.750 L 707.750,460.798 L 709.675,466.125 L 710.750,470.844 L 711.530,478.250 L 711.496,482.625 L 710.715,490.500 L 709.679,496.250 L 707.666,504.000 L 705.693,509.750 L 702.737,516.375 L 699.750,521.568 L 696.750,525.756 L 692.538,530.500 L 689.000,533.700 L 684.929,536.750 L 680.000,539.683 L 675.750,541.691 L 670.375,543.699 L 663.250,545.637 L 658.000,546.636 L 650.250,547.574 L 646.875,547.820 L 640.375,548.018 L 632.125,547.962 L 624.375,547.635 L 613.625,546.687 L 612.625,546.952 L 612.188,547.750 L 611.735,551.250 L 605.625,588.466 L 604.943,592.000 L 604.625,592.481 Z M 647.666,497.250 L 649.677,494.375 L 650.750,492.298 L 651.707,489.875 L 652.599,486.500 L 652.984,483.750 L 653.154,480.750 L 652.805,475.750 L 651.732,471.750 L 650.750,469.462 L 649.667,467.500 L 648.665,466.000 L 646.544,463.375 L 644.500,461.308 L 642.000,459.183 L 639.137,457.125 L 635.875,455.146 L 629.875,452.210 L 621.750,449.163 L 615.125,447.209 L 606.500,445.174 L 596.000,443.234 L 578.625,440.709 L 578.000,440.790 L 577.533,441.125 L 577.250,441.839 L 576.703,445.875 L 567.639,501.000 L 567.220,502.750 L 567.256,503.375 L 567.500,503.694 L 571.875,504.638 L 583.875,506.703 L 590.750,507.696 L 599.000,508.616 L 610.375,509.152 L 616.000,509.084 L 620.625,508.843 L 623.125,508.586 L 628.841,507.625 L 632.625,506.653 L 637.750,504.733 L 639.875,503.669 L 643.000,501.675 L 645.500,499.603 Z M 647.875,406.828 L 649.678,404.750 L 650.711,403.250 L 651.750,401.407 L 652.752,399.125 L 653.637,396.250 L 654.452,390.625 L 654.478,387.875 L 653.764,382.875 L 652.647,379.625 L 651.651,377.625 L 649.750,374.782 L 646.503,371.250 L 642.625,368.181 L 639.318,366.125 L 633.250,363.193 L 627.625,361.127 L 620.875,359.180 L 611.750,357.204 L 599.125,355.218 L 593.875,354.589 L 592.750,354.262 L 592.375,354.267 L 591.963,354.500 L 591.568,355.250 L 591.205,357.000 L 583.668,403.500 L 583.195,405.750 L 582.434,410.500 L 582.511,411.125 L 582.769,411.500 L 583.500,411.806 L 594.667,413.750 L 600.875,414.695 L 609.282,415.625 L 616.750,415.962 L 625.125,415.754 L 632.500,414.674 L 636.125,413.724 L 638.875,412.747 L 641.250,411.669 L 644.500,409.718 L 645.875,408.681 Z" fill="#f7931a" fill-rule="evenodd" clip-rule="evenodd"/>
</svg>
